<svg id="Layer_1" enable-background="new 0 0 256 256" height="512" viewBox="0 0 256 256" width="512" xmlns="http://www.w3.org/2000/svg"><g><path d="m32.035 191.159c-7.535 0-13.665-6.13-13.665-13.665v-123.777c0-7.535 6.13-13.665 13.665-13.665h191.931c7.535 0 13.665 6.13 13.665 13.665v123.776c0 7.535-6.13 13.665-13.665 13.665h-191.931z" fill="#63bce7"/><path d="m229.221 165.494c0 2.891-2.365 5.256-5.256 5.256h-191.93c-2.891 0-5.256-2.365-5.256-5.256v-111.777c0-2.891 2.365-5.256 5.256-5.256h191.931c2.891 0 5.256 2.365 5.256 5.256v111.777z" fill="#f46275"/><g><path d="m44.838 165.494v-111.777c0-2.891 2.365-5.256 5.256-5.256h-18.059c-2.891 0-5.256 2.365-5.256 5.256v111.777c0 2.891 2.365 5.256 5.256 5.256h18.059c-2.891 0-5.256-2.366-5.256-5.256z" fill="#f43075"/></g><g><path d="m211.162 165.494v-111.777c0-2.891-2.365-5.256-5.256-5.256h18.059c2.891 0 5.256 2.365 5.256 5.256v111.777c0 2.891-2.365 5.256-5.256 5.256h-18.059c2.891 0 5.256-2.366 5.256-5.256z" fill="#f48875"/></g><path d="m96.752 191.159h62.496v19.017h-62.496z" fill="#f8af23"/><g><path d="m96.752 191.159h18.059v19.017h-18.059z" fill="#f87023"/></g><g><path d="m141.19 191.159h18.059v19.017h-18.059z" fill="#f8d323"/></g><circle cx="128" cy="180.954" fill="#f8af23" r="4.5"/><path d="m178.687 225.626h-101.375v-10.45c0-2.761 2.239-5 5-5h91.375c2.761 0 5 2.239 5 5z" fill="#9e9e9e"/><g><path d="m100.371 210.176h-18.059c-2.761 0-5 2.239-5 5v10.45h18.059v-10.45c0-2.761 2.239-5 5-5z" fill="#707070"/></g><g><path d="m155.629 210.176h18.059c2.761 0 5 2.239 5 5v10.45h-18.059v-10.45c0-2.761-2.239-5-5-5z" fill="#cecece"/></g><path d="m195.917 76.498h-135.834c-4.879 0-8.833-3.955-8.833-8.833 0-4.879 3.955-8.833 8.833-8.833h135.833c4.879 0 8.833 3.955 8.833 8.833.001 4.878-3.954 8.833-8.832 8.833z" fill="#9e9e9e"/><circle cx="174.49" cy="67.85" fill="#f46275" r="49.022"/><circle cx="174.491" cy="67.85" fill="#f8af23" r="36.477"/><path d="m175.185 170.75h-1.389c-6.835 0-12.375-5.54-12.375-12.375v-19.162c0-6.835 5.54-12.375 12.375-12.375h1.389c6.835 0 12.375 5.54 12.375 12.375v19.162c0 6.834-5.54 12.375-12.375 12.375z" fill="#f8af23"/><path d="m202.5 67.85c0-11.46-9.29-20.75-20.75-20.75h-37.264c-4.083 5.891-6.472 13.039-6.472 20.75s2.389 14.859 6.472 20.75h37.264c11.46 0 20.75-9.29 20.75-20.75z" fill="#9e9e9e"/><g fill="#3f3679"><g><path d="m158.496 74.438-4.988-5.379c-.196-.211-.196-.537-.002-.748l4.99-5.429c.104-.114.252-.178.406-.178h4.269c.48 0 .731.571.406.925l-4.303 4.682c-.195.212-.194.537.002.748l4.292 4.629c.327.353.077.927-.405.927h-4.263c-.153-.001-.3-.065-.404-.177z"/><path d="m176.011 53.195-6.988 29.565c-.059.249-.281.425-.537.425h-3.314c-.356 0-.619-.332-.537-.679l6.989-29.565c.059-.249.281-.425.537-.425h3.313c.356 0 .619.332.537.679z"/><path d="m177.343 62.703h4.269c.154 0 .302.065.406.178l4.989 5.429c.195.212.194.537-.002.748l-4.987 5.379c-.104.113-.251.177-.405.177h-4.263c-.482 0-.732-.574-.404-.927l4.293-4.629c.196-.211.196-.537.002-.748l-4.303-4.682c-.326-.353-.075-.925.405-.925z"/></g><g><path d="m32.035 192.659h63.217v16.018h-12.94c-3.584 0-6.5 2.916-6.5 6.5v8.95h-48.112c-.829 0-1.5.671-1.5 1.5s.671 1.5 1.5 1.5h49.612 101.375 49.613c.829 0 1.5-.671 1.5-1.5s-.671-1.5-1.5-1.5h-48.112v-8.95c0-3.584-2.916-6.5-6.5-6.5h-12.939v-16.018h63.217c8.362 0 15.165-6.803 15.165-15.165v-123.777c0-8.362-6.803-15.165-15.165-15.165h-8.354c-9.171-12.834-24.18-21.225-41.121-21.225s-31.95 8.39-41.121 21.225h-101.335c-8.362 0-15.165 6.803-15.165 15.165v123.776c0 8.362 6.803 15.166 15.165 15.166zm145.152 22.517v8.95h-98.375v-8.95c0-1.93 1.57-3.5 3.5-3.5h14.439 62.496 14.439c1.931 0 3.501 1.571 3.501 3.5zm-19.439-6.5h-59.496v-16.018h59.496zm16.742-188.348c26.204 0 47.522 21.318 47.522 47.522s-21.318 47.522-47.522 47.522-47.522-21.318-47.522-47.522 21.319-47.522 47.522-47.522zm-50.007 54.67h-64.4c-4.044 0-7.333-3.29-7.333-7.333s3.29-7.333 7.333-7.333h64.447c-.368 2.454-.562 4.964-.562 7.519 0 2.426.183 4.81.515 7.147zm.594-17.666h-64.994c-5.698 0-10.333 4.635-10.333 10.333s4.636 10.333 10.333 10.333h64.909c4.614 22.536 24.283 39.639 47.997 40.336v7.044c-7.275.421-13.069 6.455-13.069 13.834v19.162c0 4.407 2.072 8.332 5.284 10.875h-133.169c-2.071 0-3.756-1.685-3.756-3.756v-111.776c0-2.071 1.685-3.756 3.756-3.756h95.216c-.904 2.378-1.635 4.838-2.174 7.371zm37.844 101.043v-19.162c0-5.997 4.878-10.875 10.875-10.875h1.389c5.997 0 10.875 4.878 10.875 10.875v19.162c0 5.997-4.878 10.875-10.875 10.875h-1.389c-5.997 0-10.875-4.879-10.875-10.875zm26.139 0v-19.162c0-7.379-5.794-13.414-13.07-13.834v-7.044c27.166-.798 49.022-23.129 49.022-50.484 0-6.297-1.168-12.324-3.282-17.889h2.235c2.071 0 3.756 1.685 3.756 3.756v111.776c0 2.071-1.685 3.756-3.756 3.756h-40.19c3.214-2.544 5.285-6.469 5.285-10.875zm-169.19-104.658c0-6.708 5.457-12.165 12.165-12.165h99.335c-1.062 1.735-2.012 3.544-2.862 5.409h-96.473c-3.725 0-6.756 3.031-6.756 6.756v111.776c0 3.725 3.031 6.756 6.756 6.756h141.761 1.389 48.78c3.725 0 6.756-3.031 6.756-6.756v-111.776c0-3.725-3.031-6.756-6.756-6.756h-3.492c-.85-1.864-1.8-3.674-2.862-5.409h6.354c6.708 0 12.165 5.457 12.165 12.165v123.776c0 6.708-5.457 12.165-12.165 12.165h-64.717-62.496-64.717c-6.708 0-12.165-5.457-12.165-12.165z"/><path d="m128 186.954c3.309 0 6-2.691 6-6s-2.691-6-6-6-6 2.691-6 6 2.691 6 6 6zm0-9c1.654 0 3 1.346 3 3s-1.346 3-3 3-3-1.346-3-3 1.346-3 3-3z"/><path d="m27.7 235.672h-18.172c-.829 0-1.5.671-1.5 1.5s.671 1.5 1.5 1.5h18.172c.829 0 1.5-.671 1.5-1.5s-.671-1.5-1.5-1.5z"/><path d="m246.472 235.672h-18.172c-.829 0-1.5.671-1.5 1.5s.671 1.5 1.5 1.5h18.172c.829 0 1.5-.671 1.5-1.5s-.671-1.5-1.5-1.5z"/><path d="m213.789 235.672h-171.578c-.829 0-1.5.671-1.5 1.5s.671 1.5 1.5 1.5h171.577c.829 0 1.5-.671 1.5-1.5s-.671-1.5-1.499-1.5z"/><path d="m9.528 227.126h7.803c.829 0 1.5-.671 1.5-1.5s-.671-1.5-1.5-1.5h-7.803c-.829 0-1.5.671-1.5 1.5s.671 1.5 1.5 1.5z"/><path d="m237.169 225.626c0 .829.671 1.5 1.5 1.5h7.803c.829 0 1.5-.671 1.5-1.5s-.671-1.5-1.5-1.5h-7.803c-.829 0-1.5.672-1.5 1.5z"/><path d="m174.491 105.827c20.94 0 37.977-17.037 37.977-37.977s-17.037-37.977-37.977-37.977-37.977 17.037-37.977 37.977 17.036 37.977 37.977 37.977zm-29.183-57.227h36.442c10.614 0 19.25 8.636 19.25 19.25s-8.636 19.25-19.25 19.25h-36.442c-3.657-5.526-5.794-12.142-5.794-19.25s2.136-13.724 5.794-19.25zm29.183-15.727c19.287 0 34.977 15.69 34.977 34.977s-15.69 34.977-34.977 34.977c-10.842 0-20.547-4.959-26.968-12.727h34.227c12.269 0 22.25-9.981 22.25-22.25s-9.981-22.25-22.25-22.25h-34.227c6.42-7.768 16.126-12.727 26.968-12.727z"/><path d="m82.75 98.332h39.5c.829 0 1.5-.671 1.5-1.5s-.671-1.5-1.5-1.5h-39.5c-.829 0-1.5.671-1.5 1.5s.671 1.5 1.5 1.5z"/><path d="m51.25 111.522h64.625c.829 0 1.5-.671 1.5-1.5s-.671-1.5-1.5-1.5h-64.625c-.829 0-1.5.671-1.5 1.5s.671 1.5 1.5 1.5z"/><path d="m51.25 124.713h98.969c.829 0 1.5-.671 1.5-1.5s-.671-1.5-1.5-1.5h-98.969c-.829 0-1.5.671-1.5 1.5s.671 1.5 1.5 1.5z"/><path d="m51.25 137.904h50.5c.829 0 1.5-.671 1.5-1.5s-.671-1.5-1.5-1.5h-50.5c-.829 0-1.5.671-1.5 1.5s.671 1.5 1.5 1.5z"/><path d="m51.25 151.095h71c.829 0 1.5-.671 1.5-1.5s-.671-1.5-1.5-1.5h-71c-.829 0-1.5.671-1.5 1.5s.671 1.5 1.5 1.5z"/><path d="m150.219 134.904h-39.969c-.829 0-1.5.671-1.5 1.5s.671 1.5 1.5 1.5h39.969c.829 0 1.5-.671 1.5-1.5s-.672-1.5-1.5-1.5z"/><path d="m125.125 111.522h11.625c.829 0 1.5-.671 1.5-1.5s-.671-1.5-1.5-1.5h-11.625c-.829 0-1.5.671-1.5 1.5s.671 1.5 1.5 1.5z"/><path d="m150.219 148.095h-19.984c-.829 0-1.5.671-1.5 1.5s.671 1.5 1.5 1.5h19.984c.829 0 1.5-.671 1.5-1.5s-.672-1.5-1.5-1.5z"/><path d="m51.25 98.332h25.25c.829 0 1.5-.671 1.5-1.5s-.671-1.5-1.5-1.5h-25.25c-.829 0-1.5.671-1.5 1.5s.671 1.5 1.5 1.5z"/></g></g></g></svg>