<svg width="98" height="78" viewBox="0 0 98 78" fill="none" xmlns="http://www.w3.org/2000/svg">
<path d="M70.6216 10.2341C73.8414 13.3481 79.8207 20.8353 77.9791 25.8721" stroke="black" stroke-width="1.41582" stroke-linecap="round"/>
<circle cx="70.6216" cy="10.2341" r="2.83165" transform="rotate(29.8117 70.6216 10.2341)" fill="black"/>
<ellipse cx="37.7475" cy="24.5947" rx="22.7564" ry="9.40635" transform="rotate(70.3298 37.7475 24.5947)" fill="#F7F7F7" fill-opacity="0.83"/>
<path d="M71.3139 43.3178C72.7414 46.9593 71.3002 51.4524 67.5587 55.8287C63.833 60.1864 57.9084 64.3172 50.6601 67.1585C43.4117 69.9999 36.2583 70.9957 30.5637 70.3307C24.8449 69.663 20.7342 67.3461 19.3067 63.7047C17.8793 60.0633 19.3205 55.5701 23.062 51.1938C26.7877 46.8361 32.7123 42.7054 39.9606 39.864C47.2089 37.0226 54.3624 36.0268 60.057 36.6918C65.7757 37.3595 69.8865 39.6764 71.3139 43.3178Z" fill="#040404" stroke="black"/>
<circle cx="76.8849" cy="39.8306" r="15.782" transform="rotate(-21.4052 76.8849 39.8306)" fill="#DBA11C" stroke="black"/>
<path fill-rule="evenodd" clip-rule="evenodd" d="M28.6881 45.4046L38.6276 70.7541C35.7085 71.0987 32.9486 71.117 30.4576 70.8217L22.6492 50.9073C24.2757 48.9978 26.3126 47.1356 28.6881 45.4046Z" fill="#DBA11C"/>
<path fill-rule="evenodd" clip-rule="evenodd" d="M40.0675 39.2859L51.1337 67.5088C51.0369 67.5474 50.9398 67.5858 50.8425 67.6239C48.487 68.5473 46.1389 69.2785 43.8444 69.8228L33.1478 42.5423C35.2016 41.3818 37.4217 40.3221 39.7781 39.3984C39.8746 39.3606 39.9711 39.3231 40.0675 39.2859Z" fill="#DBA11C"/>
<path fill-rule="evenodd" clip-rule="evenodd" d="M55.9302 65.3163L45.0763 37.6347C47.6957 36.9155 50.2612 36.4367 52.7065 36.1904L62.5089 61.1904C60.5478 62.6715 58.3404 64.0637 55.9302 65.3163Z" fill="#DBA11C"/>
<path fill-rule="evenodd" clip-rule="evenodd" d="M93.1643 40.6826C93.147 41.2734 93.0974 41.8605 93.0166 42.4415C91.3288 43.2967 89.2558 43.4844 87.7789 43.4002C87.3886 43.3779 87.0902 43.0434 87.1125 42.6531C87.1347 42.2627 87.4692 41.9644 87.8596 41.9866C89.4136 42.0753 91.5196 41.8129 92.9292 40.8542C93.0101 40.7992 93.0885 40.742 93.1643 40.6826Z" fill="black"/>
<ellipse cx="24.6225" cy="38.7182" rx="23.3237" ry="9.40635" transform="rotate(10.2195 24.6225 38.7182)" fill="#F7F7F7" fill-opacity="0.83"/>
<circle cx="77.729" cy="35.3938" r="3.53956" fill="black"/>
<path d="M60.0312 17.696C64.373 18.7972 73.2833 22.321 74.1894 27.6067" stroke="black" stroke-width="1.41582" stroke-linecap="round"/>
<circle cx="60.0312" cy="17.696" r="2.83165" fill="black"/>
</svg>
