<svg width="213" height="90" viewBox="0 0 213 90" fill="none" xmlns="http://www.w3.org/2000/svg">
<path fill-rule="evenodd" clip-rule="evenodd" d="M106.435 60.2232L114.835 64.4962C115.548 64.857 116 65.5977 116 66.4084V76.5889C116 77.3997 115.548 78.1403 114.835 78.5011L106.435 82.7741C105.843 83.0753 105.147 83.0753 104.555 82.7741L96.155 78.5011C95.4421 78.1356 94.9945 77.3904 95.0001 76.5782V66.4084C95.0005 65.5977 95.4519 64.857 96.1655 64.4962L104.566 60.2232C105.154 59.9256 105.846 59.9256 106.435 60.2232Z" stroke="black" stroke-width="3" stroke-linecap="round" stroke-linejoin="round"/>
<path d="M134 83L105.5 12L77 83" stroke="black" stroke-width="12.6667" stroke-linecap="round" stroke-linejoin="round"/>
<path d="M206 46L177 7L148 46" stroke="black" stroke-width="12.6667" stroke-linecap="round" stroke-linejoin="round"/>
<path d="M22 83.48V9" stroke="black" stroke-width="12.6667" stroke-linecap="round" stroke-linejoin="round"/>
<path d="M203 83.48V9" stroke="black" stroke-width="12.6667" stroke-linecap="round" stroke-linejoin="round"/>
<path d="M50 83.48V9" stroke="black" stroke-width="12.6667" stroke-linecap="round" stroke-linejoin="round"/>
<path d="M178 83V36" stroke="black" stroke-width="12.6667" stroke-linecap="round" stroke-linejoin="round"/>
<path d="M152 83.48V9" stroke="black" stroke-width="12.6667" stroke-linecap="round" stroke-linejoin="round"/>
<path d="M61.6653 72.1436L9 19.4783" stroke="black" stroke-width="12.6667" stroke-linecap="round" stroke-linejoin="round"/>
</svg>
