<svg height="512" viewBox="0 0 64 64" width="512" xmlns="http://www.w3.org/2000/svg"><path d="m56.82 24.09c-.04-.37-.1-.73-.16-1.09h-45.32a22.961 22.961 0 0 0 -.34 3.55 3.721 3.721 0 0 1 -.11.88l-3.89 15.57h6v8a2.006 2.006 0 0 0 2 2h7a2.006 2.006 0 0 1 2 2v7h20v-9.77a7.991 7.991 0 0 1 3.35-6.5 23 23 0 0 0 9.47-21.64z" fill="#ffbcab"/><path d="m27 58v-5a2.006 2.006 0 0 0 -2-2h-7a2.006 2.006 0 0 1 -2-2v-6a2 2 0 0 0 -2-2h-4l3.89-15.57a3.721 3.721 0 0 0 .11-.88c.009-.522.044-1.037.088-1.55h-2.748a22.961 22.961 0 0 0 -.34 3.55 3.721 3.721 0 0 1 -.11.88l-3.89 15.57h6v8a2.006 2.006 0 0 0 2 2h7a2.006 2.006 0 0 1 2 2v7h20v-2h-15a2 2 0 0 1 -2-2z" fill="#ff9478"/><path d="m20 29h4.46a9.244 9.244 0 0 0 .68 1.62l-3.16 3.16 4.24 4.24 3.16-3.16a9.244 9.244 0 0 0 1.62.68v4.46h6v-4.46a9.244 9.244 0 0 0 1.62-.68l3.16 3.16 4.24-4.24-3.16-3.16a9.244 9.244 0 0 0 .68-1.62h4.46v-6h-11.36a4 4 0 1 1 -5.28 0h-11.36z" fill="#ff9811"/><path d="m30 26a4 4 0 1 0 6.64-3h-5.28a3.984 3.984 0 0 0 -1.36 3z" fill="#f1f2f2"/><path d="m37 9-3-6-3 6 3 3z" fill="#a7a9ac"/><path d="m34 12v11h2.64.36v-14z" fill="#ffb655"/><path d="m31 9v14h.36 2.64v-11z" fill="#d80027"/><path d="m43 3v20h.54 4.46 5v-4-4-4-4-4z" fill="#ffcd00"/><path d="m23 11v-6a2 2 0 0 0 -2-2h-2a2 2 0 0 0 -2 2v6z" fill="#006df0"/><path d="m22 23v-12h-4v12h2z" fill="#57a4ff"/><path d="m57.814 23.982c-.04-.374-.186-1.142-.186-1.142a.987.987 0 0 0 -.968-.84h-2.66v-19a1 1 0 0 0 -1-1h-10a1 1 0 0 0 -1 1v19h-4v-13a1.939 1.939 0 0 0 -.1-.447l-3-6a1.042 1.042 0 0 0 -1.79 0l-3 6a1.939 1.939 0 0 0 -.11.447v13h-7v-10h1v7a1 1 0 0 0 2 0v-8a1 1 0 0 0 -1-1h-1v-5a3 3 0 0 0 -3-3h-2a3 3 0 0 0 -3 3v6a1 1 0 0 0 1 1v10h-5.66a.426.426 0 0 0 -.164.025.989.989 0 0 0 -.822.8 24.026 24.026 0 0 0 -.354 3.725 2.738 2.738 0 0 1 -.08.638l-3.89 15.57a1 1 0 0 0 .97 1.242h5v7a3 3 0 0 0 3 3h7a1 1 0 0 1 1 1v7a1 1 0 0 0 1 1h20a1 1 0 0 0 1-1v-9.77a7 7 0 0 1 2.931-5.686 24.084 24.084 0 0 0 9.883-22.562zm-13.814-19.982h8v2h-3a1 1 0 0 0 0 2h3v2h-3a1 1 0 0 0 0 2h3v2h-3a1 1 0 0 0 0 2h3v2h-3a1 1 0 0 0 0 2h3v2h-8zm-11 8.414v9.586h-1v-10.586zm3 9.586h-1v-9.586l1-1zm-4.231 2h4.462a3 3 0 1 1 -4.462 0zm2.231-18.764 1.783 3.564-1.783 1.786-1.783-1.786zm-4.578 18.764a5 5 0 1 0 9.156 0h8.422v4h-3.46a1 1 0 0 0 -.952.694 8.225 8.225 0 0 1 -.605 1.446 1 1 0 0 0 .17 1.187l2.452 2.453-2.825 2.826-2.453-2.453a1 1 0 0 0 -1.188-.17 8.112 8.112 0 0 1 -1.446.605 1 1 0 0 0 -.693.952v3.46h-4v-3.46a1 1 0 0 0 -.693-.952 8.112 8.112 0 0 1 -1.446-.605 1 1 0 0 0 -1.188.17l-2.453 2.453-2.82-2.826 2.452-2.453a1 1 0 0 0 .17-1.187 8.225 8.225 0 0 1 -.605-1.446 1 1 0 0 0 -.957-.694h-3.46v-4zm-11.422-19a1 1 0 0 1 1-1h2a1 1 0 0 1 1 1v5h-4zm1 7h2v10h-2zm27.769 32.917a9.006 9.006 0 0 0 -3.769 7.313v8.77h-18v-6a3 3 0 0 0 -3-3h-7a1 1 0 0 1 -1-1v-8a1 1 0 0 0 -1-1h-4.72l3.581-14.334a4.617 4.617 0 0 0 .139-1.1 21.616 21.616 0 0 1 .213-2.566h6.787v5a1 1 0 0 0 1 1h3.753c.057.144.114.283.174.418l-2.654 2.655a1 1 0 0 0 0 1.414l4.24 4.24a1 1 0 0 0 1.414 0l2.654-2.654c.136.059.275.117.419.174v3.753a1 1 0 0 0 1 1h6a1 1 0 0 0 1-1v-3.753c.144-.057.283-.115.419-.174l2.654 2.654a1.029 1.029 0 0 0 1.414 0l4.24-4.24a1 1 0 0 0 0-1.414l-2.654-2.655c.06-.135.117-.274.174-.418h3.753a1 1 0 0 0 1-1v-5h6.8c.01.072.023.138.031.211a22.1 22.1 0 0 1 -9.062 20.706z"/><path d="m41 44.669a1 1 0 0 1 -.369-1.929c.32-.128.637-.264.948-.408a1 1 0 1 1 .842 1.814q-.517.24-1.052.452a1 1 0 0 1 -.369.071z"/><path d="m45.664 42a1 1 0 0 1 -.615-1.789 17.951 17.951 0 0 0 6.927-13.263 1 1 0 0 1 2 .1 19.96 19.96 0 0 1 -7.7 14.737.993.993 0 0 1 -.612.215z"/></svg>