<svg id="Layer_1_1_" enable-background="new 0 0 64 64" height="512" viewBox="0 0 64 64" width="512" xmlns="http://www.w3.org/2000/svg"><path d="m25 44h-6c-.55 0-1.05.22-1.41.59-.37.36-.59.86-.59 1.41 0 1.1.9 2 2 2h12c.55 0 1.05-.22 1.41-.59.37-.36.59-.86.59-1.41 0-1.1-.9-2-2-2zm-6-33c0 1.66 1.34 3 3 3h3 3c.83 0 1.58-.34 2.12-.88s.88-1.29.88-2.12c0-1.66-1.34-3-3-3h-6c-.83 0-1.58.34-2.12.88s-.88 1.29-.88 2.12zm34-8v50h-42v4c0 1.1-.45 2.1-1.17 2.83-.73.72-1.73 1.17-2.83 1.17-2.21 0-4-1.79-4-4v-54z" fill="#71d2df"/><path d="m33 25h-8-8v-6h8 8v3z" fill="#8360f4"/><path d="m32 35-7 3-7-3 7-3z" fill="#f6db40"/><path d="m31 44c1.1 0 2 .9 2 2 0 .55-.22 1.05-.59 1.41-.36.37-.86.59-1.41.59h-12c-1.1 0-2-.9-2-2 0-.55.22-1.05.59-1.41.36-.37.86-.59 1.41-.59h6z" fill="#db535b"/><path d="m28 8c1.66 0 3 1.34 3 3 0 .83-.34 1.58-.88 2.12s-1.29.88-2.12.88h-3-3c-1.66 0-3-1.34-3-3 0-.83.34-1.58.88-2.12s1.29-.88 2.12-.88z" fill="#db535b"/><path d="m61 53v4c0 2.21-1.79 4-4 4h-50c1.1 0 2.1-.45 2.83-1.17.72-.73 1.17-1.73 1.17-2.83v-4z" fill="#6599ed"/><g fill="#1a1a1a"><path d="m61 52h-7v-49c0-.552-.448-1-1-1h-50c-.552 0-1 .448-1 1v54c0 2.757 2.243 5 5 5h50c2.757 0 5-2.243 5-5v-4c0-.552-.448-1-1-1zm-51 1v4c0 1.654-1.346 3-3 3s-3-1.346-3-3v-53h48v48h-41c-.552 0-1 .448-1 1zm50 4c0 1.654-1.346 3-3 3h-46.002c.629-.836 1.002-1.875 1.002-3v-3h48z"/><path d="m22 15h2v3h-7c-.552 0-1 .448-1 1v6c0 .552.448 1 1 1h7v5.341l-6.394 2.74c-.368.157-.606.519-.606.919s.238.762.606.919l6.394 2.74v4.341h-5c-1.654 0-3 1.346-3 3s1.346 3 3 3h12c1.654 0 3-1.346 3-3s-1.346-3-3-3h-5v-4.341l6.205-2.659h14.795c.552 0 1-.448 1-1v-13c0-.552-.448-1-1-1h-13v-2c0-.552-.448-1-1-1h-7v-3h2c2.206 0 4-1.794 4-4s-1.794-4-4-4h-6c-1.858 0-3.411 1.28-3.858 3h-6.142v2h6.142c.447 1.72 2 3 3.858 3zm10 31c0 .551-.449 1-1 1h-12c-.551 0-1-.449-1-1s.449-1 1-1h12c.551 0 1 .449 1 1zm-7-9.088-4.461-1.912 4.461-1.912 4.461 1.912zm9-11.912v-2h12v11h-13.795l-6.205-2.659v-5.341h7c.552 0 1-.448 1-1zm-2-1h-14v-4h14zm-10-15h6c1.103 0 2 .897 2 2s-.897 2-2 2h-6c-1.103 0-2-.897-2-2s.897-2 2-2z"/><path d="m42 30h2v2h-2z"/><path d="m38 30h2v2h-2z"/><path d="m34 30h2v2h-2z"/><path d="m8 10h2v2h-2z"/></g></svg>