<svg id="Layer_1" enable-background="new 0 0 128 128" height="512" viewBox="0 0 128 128" width="512" xmlns="http://www.w3.org/2000/svg"><g><path d="m116.5 11.625h-101c-4.411 0-8 3.589-8 8v70.55c0 4.411 3.589 8 8 8h37.756l-5.175 12.541h-10.831c-2.757 0-5 2.243-5 5v3.66c0 .552.448 1 1 1h65.5c.552 0 1-.448 1-1v-3.66c0-2.757-2.243-5-5-5h-10.831l-5.175-12.541h37.756c4.411 0 8-3.589 8-8v-70.55c0-4.411-3.589-8-8-8z" fill="#e6e7e8"/><g><path d="m11.5 93.175h101c3.866 0 7-3.134 7-7v-70.55c0-3.866-3.134-7-7-7h-101c-3.866 0-7 3.134-7 7v70.549c0 3.867 3.134 7.001 7 7.001z" fill="#0089ef"/><path d="m50.75 93.175h22.5l6 14.54h-34.5z" fill="#6dc9f7"/><path d="m29.25 115.375h65.5v-3.66c0-2.209-1.791-4-4-4h-57.5c-2.209 0-4 1.791-4 4z" fill="#0089ef"/><path d="m16.783 80.689h90.433c2.761 0 5-2.239 5-5v-54.78c0-2.761-2.239-5-5-5h-90.433c-2.761 0-5 2.239-5 5v54.78c0 2.761 2.239 5 5 5z" fill="#d4fbff"/><g fill="#fa759e"><path d="m54.366 45.302v.044c0 1.834-1.879 3.068-3.563 2.339l-14.362-6.225c-1.338-.58-2.203-1.898-2.203-3.356v-.039c0-1.458.866-2.776 2.203-3.356l14.363-6.225c1.683-.729 3.563.504 3.563 2.339v.069c0 1.054-.649 2-1.633 2.379l-12.393 4.774 12.41 4.886c.975.383 1.615 1.324 1.615 2.371z"/><path d="m66.812 26.819-5.603 23.071c-.187.76-.349 1.36-.49 1.801-.14.44-.353.784-.64 1.031s-.704.37-1.251.37c-1.36 0-2.041-.586-2.041-1.761 0-.306.133-1.074.4-2.301l5.582-23.071c.294-1.227.574-2.068.841-2.521.266-.453.787-.68 1.56-.68.667 0 1.177.16 1.531.48.353.32.53.76.53 1.321.001.413-.139 1.167-.419 2.26z"/><path d="m87.565 41.462-14.365 6.254c-1.684.733-3.566-.501-3.566-2.337v-.035c0-1.048.642-1.99 1.617-2.373l12.449-4.887-12.437-4.812c-.982-.38-1.629-1.324-1.629-2.377 0-1.833 1.876-3.066 3.559-2.34l14.361 6.196c1.341.578 2.209 1.899 2.209 3.359-.001 1.454-.864 2.771-2.198 3.352z"/></g><g><path d="m98.932 65.397c0 2.276-1.769 4.159-4.04 4.302l-41.912 2.638v-13.879l41.912 2.637c2.271.143 4.04 2.026 4.04 4.302z" fill="#0089ef"/><path d="m41.949 69.72 11.031 2.617v-13.88l-11.031 2.617z" fill="#6dc9f7"/><path d="m41.95 61.083c-.738-.573-3.397-2.41-6.359-1.681-5.021 1.236-10.523 6.951-10.523 6.951s3.571-.482 5.485.574c1.913 1.056 2.934 3.889 5.612 4.591 2.285.598 5.027-1.205 5.785-1.749z" fill="#ffd7e5"/></g><path d="m107.217 15.908h-90.434c-2.761 0-5 2.239-5 5v3c0-2.761 2.239-5 5-5h90.433c2.761 0 5 2.239 5 5v-3c.001-2.761-2.238-5-4.999-5z" fill="#fff"/><circle cx="62" cy="86.702" fill="#6dc9f7" r="3.121"/><g fill="#3a2c60"><path d="m55.366 30.822c0-1.199-.599-2.309-1.602-2.967-1.004-.658-2.259-.766-3.358-.29l-14.363 6.226c-1.704.738-2.806 2.416-2.806 4.312 0 1.856 1.101 3.534 2.806 4.274l14.363 6.226c.454.196.935.294 1.413.294.681 0 1.356-.197 1.945-.584 1.003-.658 1.602-1.768 1.602-2.967v-.044c0-1.468-.883-2.765-2.249-3.303l-10.021-3.945 9.996-3.851c1.36-.522 2.274-1.853 2.274-3.381zm-2.992 1.515-12.393 4.774c-.385.148-.639.518-.641.93s.25.783.634.935l12.41 4.886c.596.234.981.801.981 1.441v.044c0 .531-.255 1.003-.699 1.295s-.979.337-1.466.126l-14.362-6.225c-.973-.423-1.602-1.38-1.602-2.479 0-1.06.628-2.017 1.601-2.438l14.363-6.226c.202-.088.412-.131.621-.131.294 0 .585.086.845.257.444.292.699.764.699 1.364.001.648-.388 1.216-.991 1.447z"/><path d="m60.731 53.479c.428-.368.745-.868.939-1.484.146-.456.316-1.078.51-1.868l5.603-23.064c.402-1.578.449-2.185.449-2.503 0-.84-.297-1.553-.858-2.062-.54-.49-1.281-.739-2.203-.739-1.434 0-2.108.639-2.421 1.171-.326.553-.628 1.441-.951 2.795l-5.589 23.092c-.375 1.727-.423 2.25-.423 2.513 0 1.729 1.137 2.761 3.041 2.761.791 0 1.432-.206 1.903-.612zm-2.944-2.149c0-.059.019-.434.372-2.065l5.584-23.073c.353-1.476.608-2.04.73-2.248.068-.116.329-.186.697-.186.281 0 .658.038.858.221.095.085.203.229.203.58 0 .184-.051.689-.389 2.013-.001.004-.002.008-.003.012l-5.604 23.068c-.18.733-.336 1.311-.472 1.737-.082.258-.196.451-.339.574-.035.03-.182.128-.599.128-1.038 0-1.038-.353-1.038-.761z"/><path d="m68.634 45.38c0 1.2.6 2.31 1.604 2.968.589.386 1.264.582 1.944.582.479 0 .962-.098 1.418-.296l14.364-6.255c1.7-.74 2.799-2.416 2.799-4.271 0-1.861-1.104-3.54-2.812-4.276l-14.362-6.196c-1.098-.474-2.354-.364-3.355.294s-1.599 1.767-1.599 2.965c0 1.454.911 2.784 2.268 3.31l10.045 3.887-10.061 3.95c-1.369.535-2.253 1.832-2.253 3.338zm2.982-1.478 12.449-4.888c.384-.15.636-.521.635-.934s-.255-.781-.639-.93l-12.438-4.812c-.593-.229-.99-.81-.99-1.444 0-.53.255-1.002.698-1.294.26-.172.552-.259.847-.259.207 0 .416.043.617.13l14.362 6.196c.975.421 1.604 1.379 1.604 2.44 0 1.058-.627 2.015-1.598 2.437l-14.361 6.256c-.49.212-1.023.167-1.469-.125-.444-.291-.699-.764-.699-1.33 0-.642.386-1.208.982-1.443z"/><path d="m99.933 65.398c0-2.797-2.187-5.126-4.978-5.301l-41.912-2.638c-.097-.004-.197.002-.293.025l-10.59 2.512c-1.188-.826-3.835-2.297-6.81-1.565-5.241 1.289-10.771 6.986-11.004 7.229-.295.307-.363.766-.171 1.145.192.38.61.596 1.024.54.906-.119 3.544-.272 4.868.459.629.347 1.201 1.006 1.807 1.704 1.011 1.165 2.155 2.485 4.036 2.979.398.104.805.149 1.211.149 2.065 0 4.116-1.181 5.083-1.828l10.546 2.502c.075.019.152.027.23.027.021 0 .042-.001.062-.002l41.912-2.638c2.792-.174 4.979-2.503 4.979-5.299zm-56.774-3.583 8.821-2.092v11.349l-8.821-2.092zm-6.741 8.736c-1.282-.336-2.132-1.315-3.032-2.354-.693-.8-1.41-1.627-2.351-2.146-.963-.53-2.212-.734-3.332-.793 1.974-1.719 5.173-4.159 8.126-4.886 2.152-.526 4.183.588 5.12 1.224v7.644c-1.105.717-3.056 1.702-4.531 1.311zm58.412-1.85-40.85 2.57v-11.749l40.85 2.57c1.739.109 3.103 1.561 3.103 3.305s-1.364 3.195-3.103 3.304z"/><path d="m107.217 14.908h-90.434c-3.309 0-6 2.691-6 6v54.78c0 3.309 2.691 6 6 6h62.05c.553 0 1-.447 1-1s-.447-1-1-1h-62.05c-2.206 0-4-1.794-4-4v-54.78c0-2.206 1.794-4 4-4h90.434c2.206 0 4 1.794 4 4v54.78c0 2.206-1.794 4-4 4h-9.284c-.553 0-1 .447-1 1s.447 1 1 1h9.284c3.309 0 6-2.691 6-6v-54.78c0-3.308-2.692-6-6-6z"/><path d="m93.5 79.689h-10.25c-.553 0-1 .447-1 1s.447 1 1 1h10.25c.553 0 1-.447 1-1s-.447-1-1-1z"/><path d="m112.5 7.625h-101c-4.411 0-8 3.589-8 8v70.55c0 4.411 3.589 8 8 8h37.755l-5.175 12.54h-10.83c-2.757 0-5 2.243-5 5v3.66c0 .553.447 1 1 1h65.5c.553 0 1-.447 1-1v-3.66c0-2.757-2.243-5-5-5h-10.83l-5.175-12.54h37.755c4.411 0 8-3.589 8-8v-70.55c0-4.411-3.589-8-8-8zm-18.75 104.09v2.66h-63.5v-2.66c0-1.654 1.346-3 3-3h11.5 34.5 11.5c1.654 0 3 1.346 3 3zm-15.994-5h-31.512l5.175-12.54h21.162zm40.744-20.54c0 3.309-2.691 6-6 6h-101c-3.309 0-6-2.691-6-6v-70.55c0-3.309 2.691-6 6-6h101c3.309 0 6 2.691 6 6z"/></g></g></g></svg>