<svg width="152" height="152" viewBox="0 0 152 152" fill="none" xmlns="http://www.w3.org/2000/svg">
<path fill-rule="evenodd" clip-rule="evenodd" d="M81.6366 9.18351L132.303 34.5168C136.608 36.6558 139.331 41.0469 139.333 45.8535V106.21C139.331 111.017 136.608 115.408 132.303 117.547L81.6366 142.88C78.0686 144.666 73.8679 144.666 70.2999 142.88L19.6332 117.547C15.3329 115.38 12.6331 110.962 12.6666 106.147V45.8535C12.6691 41.0469 15.3921 36.6558 19.6966 34.5168L70.3632 9.18351C73.9139 7.41914 78.0859 7.41914 81.6366 9.18351Z" stroke="#8F643B" stroke-width="12.6667" stroke-linecap="round" stroke-linejoin="round"/>
<path d="M14.6934 39.0132L76 69.6665L137.307 39.0132" stroke="#8F643B" stroke-width="12.6667" stroke-linecap="round" stroke-linejoin="round"/>
<path d="M76 144.147V69.6667" stroke="#8F643B" stroke-width="12.6667" stroke-linecap="round" stroke-linejoin="round"/>
<path d="M44.3333 22.1667L107.667 53.8334" stroke="#8F643B" stroke-width="12.6667" stroke-linecap="round" stroke-linejoin="round"/>
</svg>
